<svg width="24" height="25" viewBox="0 0 24 25" fill="none" xmlns="http://www.w3.org/2000/svg">
<g clip-path="url(#clip0_348_2109)">
<path d="M12.0023 0.896729C18.6398 0.896729 24.0023 6.25923 24.0023 12.8967C24.0023 19.5342 18.6398 24.8967 12.0023 24.8967C5.36482 24.8967 0.00231934 19.5342 0.00231934 12.8967C0.00231934 6.25923 5.36482 0.896729 12.0023 0.896729Z" fill="#A4C639"/>
<path d="M6.22584 10.1219C5.70084 10.1219 5.25084 10.5719 5.25084 11.0969V15.1469C5.25084 15.6719 5.70084 16.1219 6.22584 16.1219C6.78834 16.1219 7.20084 15.6719 7.20084 15.1469V11.0594C7.23834 10.5344 6.78834 10.1219 6.22584 10.1219ZM14.1758 6.44688L14.8508 5.20938C14.8883 5.13438 14.8508 5.05938 14.8133 5.02188C14.7383 4.98438 14.6633 5.02188 14.6258 5.05938L13.9133 6.29688C13.3133 6.03438 12.6758 5.88438 12.0008 5.88438C11.3258 5.88438 10.6508 6.03438 10.0883 6.29688L9.37584 5.09688C9.33834 5.02188 9.26334 5.02188 9.18834 5.02188C9.11334 5.05938 9.11334 5.13438 9.15084 5.20938L9.82584 6.44688C8.47584 7.12188 7.57584 8.43438 7.57584 9.93438H16.4258C16.4258 8.47188 15.5258 7.15938 14.1758 6.44688ZM9.97584 8.35938C9.78834 8.35938 9.60084 8.20938 9.60084 7.98438C9.60084 7.79688 9.75084 7.60938 9.97584 7.60938C10.1633 7.60938 10.3508 7.75938 10.3508 7.98438C10.3508 8.20938 10.2008 8.35938 9.97584 8.35938ZM14.0258 8.35938C13.8383 8.35938 13.6508 8.20938 13.6508 7.98438C13.6508 7.79688 13.8008 7.60938 14.0258 7.60938C14.2133 7.60938 14.4008 7.75938 14.4008 7.98438C14.4008 8.20938 14.2133 8.35938 14.0258 8.35938ZM7.61334 10.3094V16.6094C7.61334 17.1719 8.10084 17.6594 8.66334 17.6594H9.37584V19.7969C9.37584 20.3219 9.82584 20.7719 10.3508 20.7719C10.9133 20.7719 11.3258 20.3219 11.3258 19.7969V17.6594H12.6383V19.7969C12.6383 20.3219 13.0883 20.7719 13.6133 20.7719C14.1758 20.7719 14.5883 20.3219 14.5883 19.7969V17.6594H15.3008C15.8633 17.6594 16.3508 17.2094 16.3508 16.6094V10.3094H7.61334ZM18.7508 11.0969C18.7508 10.5719 18.3008 10.1219 17.7758 10.1219C17.2508 10.1219 16.8008 10.5719 16.8008 11.0969V15.1844C16.8008 15.7094 17.2508 16.1594 17.7758 16.1594C18.3008 16.1594 18.7508 15.7094 18.7508 15.1844V11.0969Z" fill="white"/>
</g>
<defs>
<clipPath id="clip0_348_2109">
<rect width="24" height="24" fill="white" transform="translate(0 0.897949)"/>
</clipPath>
</defs>
</svg>
