<svg width="394" height="38" viewBox="0 0 394 38" fill="none" xmlns="http://www.w3.org/2000/svg">
<path d="M0.833333 18.5C0.833333 19.9728 2.02724 21.1667 3.5 21.1667C4.97276 21.1667 6.16667 19.9728 6.16667 18.5C6.16667 17.0272 4.97276 15.8333 3.5 15.8333C2.02724 15.8333 0.833333 17.0272 0.833333 18.5ZM387.833 18.5C387.833 19.9728 389.027 21.1667 390.5 21.1667C391.973 21.1667 393.167 19.9728 393.167 18.5C393.167 17.0273 391.973 15.8334 390.5 15.8334C389.027 15.8334 387.833 17.0273 387.833 18.5ZM3.5 19L390.5 19L390.5 18L3.5 18L3.5 19Z" fill="#9CA3AF"/>
<circle cx="196.5" cy="19" r="19" fill="white"/>
<circle cx="197" cy="19.5" r="6.5" fill="white" stroke="#6B7280" stroke-width="2"/>
</svg>
