<svg width="24" height="25" viewBox="0 0 24 25" fill="none" xmlns="http://www.w3.org/2000/svg">
<path d="M2.25 7.25C2.25 15.5343 8.96573 22.25 17.25 22.25H19.5C20.7426 22.25 21.75 21.2426 21.75 20V18.6284C21.75 18.1121 21.3987 17.6622 20.8979 17.537L16.4747 16.4312C16.0355 16.3214 15.5734 16.4855 15.3018 16.8476L14.3316 18.1412C14.05 18.5166 13.563 18.6827 13.1223 18.5212C9.81539 17.3098 7.19015 14.6846 5.97876 11.3777C5.81734 10.937 5.98336 10.45 6.3588 10.1684L7.65242 9.19818C8.01453 8.9266 8.17861 8.46445 8.06883 8.02533L6.96304 3.60215C6.83783 3.10133 6.38785 2.75 5.87163 2.75H4.5C3.25736 2.75 2.25 3.75736 2.25 5V7.25Z" stroke="#374151" stroke-width="1.5" stroke-linecap="round" stroke-linejoin="round"/>
</svg>
